<svg width="677" height="709" viewBox="0 0 677 709" fill="none" xmlns="http://www.w3.org/2000/svg">
<rect width="677" height="709" rx="131" fill="#060712"/>
<path d="M306.278 103.408C302.846 81.1008 350.035 132.58 367.624 170.76C389.956 219.236 378.348 252.269 384.783 294.31C387.506 312.099 391.694 332.837 405.375 334.205C418.244 335.492 419.96 308.037 419.96 279.295C419.96 250.265 457.159 303.248 468.521 333C469.035 334.344 468.928 335.149 468.548 335.897L342.249 484.582L287.321 432.308C278.32 423.741 264.078 424.094 255.512 433.096C246.945 442.097 247.297 456.339 256.299 464.905L327.53 532.695C331.751 536.712 337.124 538.768 342.524 538.891C349.595 539.56 356.868 536.882 361.814 531.059L481.408 390.266C482.09 389.75 482.653 388.963 483 388.5C484.5 386.5 485 387 485.285 389C487.912 407.42 491.642 425.227 492.46 449.604C494.605 513.523 462.415 561.31 410.507 593.484C392.998 604.337 365.464 611.805 338.008 611.502C309.945 611.192 281.79 602.606 263.792 592.197C228.186 571.606 192.167 534.972 184.874 471.053C177.581 407.133 218.335 344.93 218.335 344.93C218.443 344.78 270.971 272.439 289.118 219.235C304.482 174.191 311.191 135.339 306.278 103.408Z" fill="url(#paint0_linear_1_28)"/>
<defs>
<linearGradient id="paint0_linear_1_28" x1="321.709" y1="195.142" x2="410.378" y2="611.011" gradientUnits="userSpaceOnUse">
<stop stop-color="#C23EA6"/>
<stop offset="1" stop-color="#6547C7"/>
</linearGradient>
</defs>
</svg>
